<svg width="33" height="17" viewBox="0 0 33 17" fill="none" xmlns="http://www.w3.org/2000/svg">
<path d="M1.08064 8.98294C0.973119 8.77127 0.973119 8.54248 1.08064 8.33079C3.24167 4.07193 9.37574 1 16.6051 1C23.8314 1 29.9624 4.06887 32.1281 8.3257C32.2371 8.53696 32.2371 8.76556 32.1281 8.97785C29.9686 13.2367 23.8346 16.3086 16.6051 16.3086C9.37886 16.3086 3.24634 13.2398 1.08064 8.98294Z" stroke="#EF4444" stroke-linecap="round" stroke-linejoin="round"/>
<path d="M22.0723 8.65433C22.0723 10.1055 21.4959 11.4972 20.4697 12.5234C19.4437 13.5494 18.0519 14.1259 16.6007 14.1259C15.1496 14.1259 13.7578 13.5494 12.7318 12.5234C11.7056 11.4972 11.1291 10.1055 11.1291 8.65433C11.1291 7.20317 11.7056 5.81145 12.7318 4.78532C13.7578 3.7592 15.1496 3.18272 16.6007 3.18272C18.0519 3.18272 19.4437 3.7592 20.4697 4.78532C21.4959 5.81145 22.0723 7.20317 22.0723 8.65433Z" stroke="#EF4444" stroke-linecap="round" stroke-linejoin="round"/>
<path d="M12.6543 4.85185V5.4856M12.6543 5.4856L13.8363 5.19281C14.7256 4.9727 15.6652 5.07491 16.4851 5.48095L16.5313 5.50376C17.3346 5.90146 18.2533 6.00775 19.1276 5.80416L20.4546 5.49489C20.2933 6.96922 20.294 8.45651 20.4568 9.93069L19.1281 10.24C18.2536 10.4438 17.3348 10.3376 16.5313 9.93998L16.4851 9.91717C15.6652 9.51112 14.7256 9.40892 13.8363 9.62902L12.6543 9.92181M12.6543 5.4856V9.92181M12.6543 9.92181V12.4568" stroke="#EF4444" stroke-linecap="round" stroke-linejoin="round"/>
</svg>
